<svg xmlns="http://www.w3.org/2000/svg" x="0px" y="0px"
width="25" height="25"
viewBox="0 0 172 172"
style=" fill:#000000;"><g fill="none" fill-rule="nonzero" stroke="none" stroke-width="1" stroke-linecap="butt" stroke-linejoin="miter" stroke-miterlimit="10" stroke-dasharray="" stroke-dashoffset="0" font-family="none" font-weight="none" font-size="none" text-anchor="none" style="mix-blend-mode: normal"><path d="M0,172v-172h172v172z" fill="none"></path><g><path d="M86,163.4c-42.67893,0 -77.4,-34.72107 -77.4,-77.4c0,-42.67893 34.72107,-77.4 77.4,-77.4c42.67893,0 77.4,34.72107 77.4,77.4c0,42.67893 -34.72107,77.4 -77.4,77.4z" fill="#fa5757"></path><path d="M86,11.46667c41.09653,0 74.53333,33.4368 74.53333,74.53333c0,41.09653 -33.4368,74.53333 -74.53333,74.53333c-41.09653,0 -74.53333,-33.4368 -74.53333,-74.53333c0,-41.09653 33.4368,-74.53333 74.53333,-74.53333M86,5.73333c-44.33013,0 -80.26667,35.93653 -80.26667,80.26667c0,44.33013 35.93653,80.26667 80.26667,80.26667c44.33013,0 80.26667,-35.93653 80.26667,-80.26667c0,-44.33013 -35.93653,-80.26667 -80.26667,-80.26667z" fill="#fa5757"></path><path d="M86,113.23333c-3.95804,0 -7.16667,3.20863 -7.16667,7.16667c0,3.95804 3.20863,7.16667 7.16667,7.16667c3.95804,0 7.16667,-3.20863 7.16667,-7.16667c0,-3.95804 -3.20863,-7.16667 -7.16667,-7.16667zM80.26667,45.86667h11.46667v57.33333h-11.46667z" fill="#ffffff"></path></g></g></svg>